<svg width="32" height="32" viewBox="0 0 32 32" xmlns="http://www.w3.org/2000/svg"><title>icon-teammate-billing</title><g fill="none" fill-rule="evenodd" stroke-linejoin="round"><path d="M28.494 22.27a5.208 5.208 0 1 1-10.416.001 5.208 5.208 0 0 1 10.416 0z" stroke="#1A82E2"/><path d="M22.079 23.417a1.207 1.207 0 1 0 1.207-1.208 1.208 1.208 0 1 1 1.207-1.206m-1.207 3.621v.805m0-6.439v.804" stroke="#1A82E2" stroke-linecap="round"/><path d="M17.006 18.104v-2.946m-5.209.032v2.914L6.58 19.968a3.127 3.127 0 0 0-2.073 2.943v2.485h11.458M19.598 9.77c0 3.452-2.332 6.25-5.209 6.25s-5.208-2.798-5.208-6.25c0-3.45 2.331-6.25 5.208-6.25 2.877 0 5.209 2.8 5.209 6.25z" stroke="#294661"/><path d="M19.577 9.217c-.175.022-.324 0-.5.033-1.775.341-2.913-.301-3.89-2.01-.586 1.123-2.418 2.01-3.922 2.01a4.2 4.2 0 0 1-2.018-.5" stroke="#294661"/></g></svg>