<svg width="32" height="32" viewBox="0 0 32 32" xmlns="http://www.w3.org/2000/svg"><title>icon-teammate-custom</title><g fill="none" fill-rule="evenodd" stroke-linejoin="round"><g stroke="#1A82E2"><path d="M27.057 23.792c0-.291-.038-.573-.103-.844l1.037-.598-1.042-1.804-1.123.599c-.409-.389-1.026-.681-1.547-.847v-1.194h-2.083V20.3c-.52.164-.964.456-1.373.845l-.992-.6-1.021 1.805 1.047.598a3.577 3.577 0 0 0 .007 1.687l-1.035.598 1.042 1.804.95-.598c.41.387.854.68 1.375.846v1.194h2.083v-1.194c.521-.165 1.139-.459 1.547-.846l1.08.598 1.064-1.804-1.025-.598c.063-.27.112-.553.112-.843z"/><path d="M24.973 23.792a1.562 1.562 0 1 1-3.125 0 1.562 1.562 0 0 1 3.125 0z"/></g><g stroke="#294661"><path d="M17.07 19.239v-3.15m-5.42.185v2.964l-5.432 1.939a3.255 3.255 0 0 0-2.158 3.065v2.586h11.384"/><path d="M19.645 10.565c0 3.592-2.427 6.505-5.42 6.505-2.995 0-5.421-2.913-5.421-6.505 0-3.594 2.426-6.505 5.42-6.505 2.994 0 5.421 2.911 5.421 6.505z"/><path d="M19.611 9.98c-.182.023-.325.007-.508.043-1.846.356-3.033-.314-4.048-2.092-.61 1.169-2.517 2.092-4.083 2.092a4.35 4.35 0 0 1-2.1-.508"/></g></g></svg>