<svg width="44" height="40" viewBox="0 0 44 40" xmlns="http://www.w3.org/2000/svg" xmlns:xlink="http://www.w3.org/1999/xlink"><title>Message Icon</title><defs><path d="M26.182 8.727a8.727 8.727 0 1 1 8.727 8.728h-8.727V8.727z" id="a"/><mask id="d" x="0" y="0" width="17.455" height="17.455" fill="#fff"><use xlink:href="#a"/></mask><path d="M23.827 18.407v-1.49c-.372-4.69-3.873-8.19-8.19-8.19-4.318 0-7.819 3.5-8.191 8.19v1.49c.372 2.98 1.955 5.472 4.467 6.701v1.49C4.986 27.724 0 31.537 0 36.277v1.488C0 39.126.876 40 2.234 40h26.805c1.358 0 2.234-.874 2.234-2.234v-1.489c0-4.738-4.986-8.552-11.914-9.68v-1.489c2.512-1.23 4.096-3.723 4.468-6.701z" id="b"/><mask id="e" x="0" y="0" width="31.273" height="31.273" fill="#fff"><use xlink:href="#b"/></mask><ellipse id="c" cx="34.909" cy="12.364" rx=".727" ry=".727"/><mask id="f" x="0" y="0" width="1.455" height="1.455" fill="#fff"><use xlink:href="#c"/></mask></defs><g fill="none" fill-rule="evenodd"><use stroke="#B71C1C" mask="url(#d)" stroke-width="2.034" fill-opacity="0" fill="#D8D8D8" xlink:href="#a"/><use stroke="#B71C1C" mask="url(#e)" stroke-width="2.034" xlink:href="#b"/><rect fill="#B71C1C" x="34.182" y="4.364" width="1.455" height="5.818" rx=".727"/><use stroke="#B71C1C" mask="url(#f)" stroke-width="2.034" fill="#B71C1C" xlink:href="#c"/></g></svg>