<svg width="32" height="32" viewBox="0 0 32 32" xmlns="http://www.w3.org/2000/svg"><title>icon-teammate-admin</title><g fill="none" fill-rule="evenodd" stroke-linejoin="round"><g stroke="#294661"><path d="M17.07 19.239v-3.15m-5.42.185v2.964l-5.432 1.939a3.255 3.255 0 0 0-2.158 3.065v2.586h11.384"/><path d="M19.645 10.565c0 3.592-2.427 6.505-5.42 6.505-2.995 0-5.421-2.913-5.421-6.505 0-3.594 2.426-6.505 5.42-6.505 2.994 0 5.421 2.911 5.421 6.505z"/><path d="M19.611 9.98c-.182.023-.325.007-.508.043-1.846.356-3.033-.314-4.048-2.092-.61 1.169-2.517 2.092-4.083 2.092a4.35 4.35 0 0 1-2.1-.508"/></g><path stroke="#1A82E2" d="M22.583 18.157l1.619 3.792h3.794l-3.252 2.709 1.626 4.338-3.795-2.707-3.794 2.707 1.626-4.338-3.253-2.709h3.795z"/></g></svg>