<svg width="40" height="40" viewBox="0 0 40 40" xmlns="http://www.w3.org/2000/svg"><title>icon-emailServer</title><g fill="none" fill-rule="evenodd"><g stroke="#1982E2"><path d="M39.167 36.667a2.5 2.5 0 0 1-2.5 2.5H23.333a2.5 2.5 0 0 1-2.5-2.5v-8.334c0-1.378 1.12-2.5 2.5-2.5h13.334c1.38 0 2.5 1.122 2.5 2.5v8.334z"/><path d="M35 30l-5 4.167L25 30m10 5l-2.728-2.727M25 35l2.722-2.72"/></g><path stroke="#294561" d="M30.833 17.5h-30V9.167h30V22.5"/><circle stroke="#294561" cx="15.833" cy="13.333" r=".833"/><circle stroke="#294561" cx="20.833" cy="13.333" r=".833"/><circle stroke="#294561" cx="25.833" cy="13.333" r=".833"/><ellipse stroke="#294561" cx="5.833" cy="13.333" rx="1.667" ry="1.667"/><path stroke="#294561" d="M.833 9.167V.833h30v8.334"/><ellipse stroke="#294561" cx="15.833" cy="5" rx=".833" ry=".833"/><ellipse stroke="#294561" cx="20.833" cy="5" rx=".833" ry=".833"/><ellipse stroke="#294561" cx="25.833" cy="5" rx=".833" ry=".833"/><ellipse stroke="#294561" cx="5.833" cy="5" rx="1.667" ry="1.667"/><path stroke="#294561" d="M.833 17.5v8.333H17.5"/><ellipse stroke="#294561" cx="15.833" cy="21.667" rx=".833" ry=".833"/><ellipse stroke="#294561" cx="20.833" cy="21.667" rx=".833" ry=".833"/><ellipse stroke="#294561" cx="25.833" cy="21.667" rx=".833" ry=".833"/><ellipse stroke="#294561" cx="5.833" cy="21.667" rx="1.667" ry="1.667"/><path d="M9.167 32.5H17.5m-1.667-6.667V32.5" stroke="#294561"/><path d="M2.5 31.667a.833.833 0 1 0-.002 1.665.833.833 0 0 0 .002-1.665zm3.333 0a.833.833 0 1 0-.001 1.665.833.833 0 0 0 .001-1.665z" fill="#294561"/><path d="M0 0h40v40H0z"/></g></svg>