<svg width="37" height="40" viewBox="0 0 37 40" xmlns="http://www.w3.org/2000/svg"><title>icon-teammate-40x40</title><g stroke="#294661" fill="none" fill-rule="evenodd"><path d="M13.649 21.722v5.305l-9.477 3.385a5.678 5.678 0 0 0-3.767 5.344v3.568h35.946v-3.568a5.678 5.678 0 0 0-3.766-5.344l-9.477-3.385v-5.305"/><path d="M18.378 23.243c5.225 0 9.46-5.082 9.46-11.351 0-6.27-4.235-11.351-9.46-11.351-5.224 0-9.46 5.082-9.46 11.35 0 6.27 4.236 11.352 9.46 11.352z"/><path d="M27.749 10.857c-.318.04-.537.027-.857.089-3.222.62-5.292-.547-7.064-3.651-1.066 2.04-4.393 3.65-7.125 3.65-1.345 0-2.503-.275-3.663-.88"/></g></svg>