<svg width="123" height="22" viewBox="0 0 123 22" xmlns="http://www.w3.org/2000/svg"><title>SendGrid Logo 18</title><g fill="none" fill-rule="evenodd"><path fill="#99E1F4" d="M6.947 13.895h6.947v6.947H6.947zM0 6.947h6.947v6.947H0z"/><path fill="#009DD9" d="M6.947 6.947h6.947v6.947H6.947z"/><path fill="#00B3E3" d="M13.895 6.947h6.947v6.947h-6.947zM6.947 0h6.947v6.947H6.947z"/><path fill="#1A82E2" d="M0 13.895h6.947v6.947H0zM13.895 0h6.947v6.947h-6.947z"/><path d="M41.696 13.202c.516-1.16 1.598-1.951 3.025-1.951 1.427 0 2.484.667 2.927 1.951h-5.952zm9.347 1.482c0-3.557-2.583-6.397-6.346-6.397-3.542 0-6.396 2.865-6.396 6.422 0 3.557 2.657 6.423 6.494 6.423 2.658 0 4.569-1.288 5.644-3.133l-2.673-1.6c-.567 1.092-1.655 1.768-2.947 1.768-1.77 0-2.877-.889-3.271-2.248h9.495v-1.235zm68.606 0c0-1.828-1.328-3.31-3.148-3.31-1.87 0-3.296 1.408-3.296 3.31 0 1.902 1.426 3.335 3.296 3.335 1.82 0 3.148-1.507 3.148-3.335zm-9.74.025c0-4.372 3.197-6.422 5.977-6.422 1.599 0 2.853.592 3.665 1.457V2.852h3.37v18.032h-3.37v-1.383c-.812.963-2.115 1.63-3.714 1.63-2.608 0-5.928-2.074-5.928-6.422zm-2.476-8.055a2.02 2.02 0 0 0 2.016-2.025 2.02 2.02 0 0 0-2.016-2.024 2.02 2.02 0 0 0-2.016 2.024 2.02 2.02 0 0 0 2.016 2.025zm-1.685 1.88h3.37v12.35h-3.37V11.82h-1.223l1.223-3.285zm-8.977 0h3.345v2.025c.615-1.284 1.722-2.025 3.395-2.025h1.353l-1.222 3.285h-.918c-1.796 0-2.583.939-2.583 3.236v5.83h-3.37V8.533zm-18.958 3.334c0-5.138 3.862-9.263 9.175-9.263 2.657 0 4.892.961 6.51 2.493a8.982 8.982 0 0 1 1.657 2.126l-3.002 1.828c-1.106-2.05-2.804-3.112-5.14-3.112-3.272 0-5.806 2.692-5.806 5.928 0 3.31 2.485 5.929 5.929 5.929 2.607 0 4.452-1.482 5.091-3.78h-5.632v-3.285h9.322v1.383c0 4.842-3.444 9.017-8.781 9.017-5.609 0-9.323-4.274-9.323-9.264zm-4.062 2.816c0-1.828-1.328-3.31-3.149-3.31-1.869 0-3.296 1.408-3.296 3.31 0 1.902 1.427 3.335 3.296 3.335 1.82 0 3.149-1.507 3.149-3.335zm-9.74.025c0-4.372 3.197-6.422 5.976-6.422 1.6 0 2.854.592 3.665 1.457V2.852h3.37v18.032h-3.37v-1.383c-.811.963-2.115 1.63-3.714 1.63-2.607 0-5.928-2.074-5.928-6.422zM51.83 8.534h3.345v1.383c.787-1.013 1.992-1.63 3.394-1.63 2.903 0 4.65 1.877 4.65 5.063v7.534H59.8v-7.089c0-1.655-.762-2.618-2.263-2.618-1.279 0-2.336.889-2.336 2.964v6.743h-3.37V8.534zm-27.515 9.362l3.124-2.47c.885 1.53 2.287 2.42 3.886 2.42 1.747 0 2.681-1.136 2.681-2.371 0-1.482-1.795-1.952-3.714-2.545-2.41-.74-5.092-1.68-5.092-5.137 0-2.89 2.51-5.188 5.977-5.188 2.928 0 4.6 1.112 6.052 2.619L34.4 7.373c-.737-1.112-1.795-1.705-3.197-1.705-1.599 0-2.46.865-2.46 2.001 0 1.383 1.722 1.853 3.64 2.495 2.436.79 5.191 1.877 5.191 5.336 0 2.865-2.263 5.632-6.223 5.632-3.247 0-5.412-1.384-7.035-3.236z" fill="#263746"/></g></svg>